<?xml version="1.0" encoding="UTF-8" standalone="no"?>
<!-- Created with Inkscape (http://www.inkscape.org/) -->

<svg
   width="500"
   height="500"
   viewBox="0 0 132.29166 132.29167"
   version="1.1"
   id="svg5"
   inkscape:export-filename="C:\01.Dev\projeto-html-css\assets\img\logo.png"
   inkscape:export-xdpi="96"
   inkscape:export-ydpi="96"
   inkscape:version="1.1 (c68e22c387, 2021-05-23)"
   sodipodi:docname="logo.svg"
   xmlns:inkscape="http://www.inkscape.org/namespaces/inkscape"
   xmlns:sodipodi="http://sodipodi.sourceforge.net/DTD/sodipodi-0.dtd"
   xmlns="http://www.w3.org/2000/svg"
   xmlns:svg="http://www.w3.org/2000/svg">
  <sodipodi:namedview
     id="namedview7"
     pagecolor="#ffffff"
     bordercolor="#666666"
     borderopacity="1.0"
     inkscape:pageshadow="2"
     inkscape:pageopacity="0.0"
     inkscape:pagecheckerboard="0"
     inkscape:document-units="mm"
     showgrid="false"
     units="px"
     inkscape:zoom="1.546"
     inkscape:cx="118.6934"
     inkscape:cy="250"
     inkscape:window-width="1920"
     inkscape:window-height="991"
     inkscape:window-x="-9"
     inkscape:window-y="-9"
     inkscape:window-maximized="1"
     inkscape:current-layer="layer1" />
  <defs
     id="defs2" />
  <g
     inkscape:label="Camada 1"
     inkscape:groupmode="layer"
     id="layer1">
    <path
       id="path31"
       style="fill:#afc6e9;stroke:none;stroke-width:0.260693"
       d="m 66.453475,17.670273 c -0.518139,0.0043 -1.036191,0.01624 -1.554422,0.03173 -0.518231,0.01549 -1.036558,0.03465 -1.554878,0.05394 -0.369629,0.02715 -0.738921,0.05791 -1.107907,0.09202 -0.368985,0.03412 -0.737911,0.07157 -1.106091,0.112875 -0.36818,0.04131 -0.735707,0.08638 -1.102921,0.135089 -0.367211,0.04871 -0.734115,0.100979 -1.1002,0.157301 -0.366085,0.05633 -0.731324,0.116722 -1.09612,0.180873 -0.364796,0.06415 -0.729148,0.132258 -1.092493,0.204447 -0.363346,0.07219 -0.725773,0.148486 -1.087508,0.228924 -0.361732,0.08044 -0.722558,0.164959 -1.08252,0.253858 -0.478546,0.121499 -0.955291,0.249707 -1.430214,0.384866 -0.474924,0.135157 -0.948059,0.277261 -1.418882,0.426117 -0.470821,0.148856 -0.939494,0.304322 -1.405735,0.466916 -0.466238,0.162596 -0.93005,0.33225 -1.39123,0.508622 -0.461178,0.176373 -0.919723,0.359683 -1.375362,0.549873 -0.455639,0.19019 -0.908519,0.387078 -1.358136,0.591125 -0.449622,0.204048 -0.895975,0.415339 -1.339098,0.633283 -0.443125,0.217945 -0.883008,0.442654 -1.319153,0.674536 -0.356329,0.186992 -0.710073,0.378897 -1.061214,0.575259 -0.351144,0.196362 -0.699464,0.397497 -1.045348,0.602912 -0.345885,0.205413 -0.689381,0.415055 -1.029936,0.629203 -0.340556,0.214149 -0.678011,0.432479 -1.013163,0.655042 -0.335154,0.222565 -0.667618,0.449314 -0.997298,0.679976 -0.329679,0.230662 -0.656842,0.465561 -0.980976,0.704001 -0.324135,0.238442 -0.645236,0.480312 -0.963754,0.726214 -0.318517,0.245902 -0.634603,0.495833 -0.947431,0.748878 -0.38647,0.317517 -0.768033,0.640497 -1.145078,0.969192 -0.377045,0.328696 -0.749334,0.663064 -1.116519,1.002737 -0.367187,0.339672 -0.729256,0.684473 -1.086149,1.034922 -0.35689,0.35045 -0.708704,0.706537 -1.054867,1.067562 -0.346162,0.361024 -0.686776,0.726991 -1.021776,1.098385 -0.334999,0.371397 -0.664376,0.748101 -0.987777,1.129666 -0.3234,0.381565 -0.641052,0.76805 -0.952419,1.159584 -0.311366,0.391535 -0.616347,0.788203 -0.915247,1.189504 -0.260208,0.348504 -0.515838,0.700343 -0.766558,1.055774 -0.25072,0.355434 -0.496455,0.714108 -0.737546,1.076174 -0.241091,0.36207 -0.477665,0.727709 -0.708988,1.096122 -0.231321,0.368409 -0.457657,0.739789 -0.679067,1.114252 -0.221413,0.374461 -0.437788,0.75171 -0.649151,1.131931 -0.211363,0.380222 -0.417604,0.763472 -0.618777,1.149158 -0.201173,0.385686 -0.397108,0.774163 -0.587952,1.165023 -0.190844,0.390863 -0.376753,0.78424 -0.557127,1.179986 -0.193447,0.423774 -0.380685,0.850124 -0.561659,1.279259 -0.180974,0.429136 -0.355563,0.860995 -0.524035,1.295127 -0.16847,0.434131 -0.330468,0.870418 -0.486409,1.309178 -0.155938,0.438761 -0.305857,0.879753 -0.449236,1.322778 -0.14338,0.443027 -0.280368,0.888094 -0.411158,1.335019 -0.130791,0.446924 -0.255362,0.895893 -0.373533,1.34635 -0.118172,0.450458 -0.229931,0.902702 -0.335454,1.356323 -0.105527,0.453625 -0.204529,0.908514 -0.297377,1.364938 -0.07814,0.387227 -0.151434,0.775625 -0.219858,1.164571 -0.06842,0.388945 -0.132,0.778654 -0.190847,1.169104 -0.05885,0.39045 -0.112884,0.781445 -0.162287,1.173185 -0.04939,0.391739 -0.09455,0.783993 -0.134634,1.176809 -0.0401,0.392817 -0.07516,0.786305 -0.106076,1.179985 -0.03092,0.393678 -0.05746,0.78747 -0.07933,1.181796 -0.02187,0.394327 -0.03918,0.789303 -0.05213,1.184062 -0.01296,0.394762 -0.02166,0.789538 -0.02584,1.184518 -10e-6,0.486445 0.0066,0.972905 0.01994,1.459226 0.01344,0.486324 0.03408,0.972562 0.0612,1.458321 0.02712,0.485758 0.06095,0.970845 0.101999,1.455602 0.04106,0.484752 0.08895,0.969116 0.144155,1.452426 0.05521,0.483309 0.117615,0.965562 0.18722,1.446985 0.0696,0.481425 0.146501,0.961999 0.230738,1.441095 0.08424,0.479097 0.176058,0.957057 0.275163,1.433388 0.09911,0.47633 0.205378,0.951196 0.319589,1.424322 0.100043,0.427471 0.206754,0.853112 0.319135,1.277445 0.112381,0.424336 0.230575,0.846956 0.354948,1.267929 0.124371,0.420971 0.254744,0.840569 0.390758,1.257953 0.136014,0.417386 0.277907,0.832595 0.425211,1.246168 0.147305,0.413571 0.300059,0.8253 0.458304,1.234836 0.158245,0.409534 0.321653,0.816867 0.490488,1.222142 0.168836,0.405274 0.343145,0.80866 0.522221,1.209448 0.179076,0.400789 0.363174,0.799321 0.55214,1.195396 0.20293,0.417823 0.411452,0.832595 0.625578,1.244808 0.214125,0.412215 0.433817,0.821841 0.659123,1.228037 0.225304,0.406194 0.456198,0.809232 0.692667,1.208993 0.236469,0.399764 0.478598,0.796135 0.726213,1.189051 0.247618,0.392917 0.500558,0.782085 0.759306,1.167744 0.258747,0.385662 0.522989,0.767995 0.792852,1.145985 0.269862,0.377991 0.545435,0.752049 0.826396,1.121961 0.280961,0.369909 0.567445,0.735608 0.859489,1.097026 0.276666,0.344225 0.558159,0.684626 0.844076,1.021322 0.285915,0.336695 0.576325,0.669311 0.871274,0.998201 0.29495,0.328891 0.594257,0.653818 0.898022,0.974623 0.303761,0.32082 0.611954,0.6377 0.924313,0.95016 0.312358,0.31246 0.628959,0.62093 0.949697,0.92477 0.320736,0.30383 0.645734,0.60309 0.974632,0.89801 0.328896,0.29494 0.661817,0.58553 0.998658,0.87128 0.336837,0.28575 0.677214,0.56642 1.021774,0.84272 0.362062,0.29261 0.728682,0.57988 1.099294,0.86131 0.37061,0.28141 0.745488,0.55705 1.124226,0.82729 0.378738,0.27025 0.761357,0.53515 1.147798,0.79422 0.386441,0.25907 0.776743,0.5123 1.170464,0.76021 0.39372,0.2479 0.790741,0.49038 1.191315,0.72712 0.400575,0.23673 0.804711,0.46801 1.211715,0.69357 0.407008,0.22558 0.816837,0.44517 1.22985,0.65958 0.413012,0.2144 0.828933,0.42324 1.247528,0.62649 0.356249,0.17095 0.71456,0.33754 1.074813,0.49955 0.360256,0.16201 0.722577,0.31964 1.086601,0.47281 0.364022,0.15317 0.729927,0.30209 1.09748,0.44651 0.367554,0.14443 0.736607,0.28444 1.107453,0.42023 0.370846,0.13578 0.743523,0.26714 1.117427,0.39439 0.373902,0.12725 0.749319,0.25019 1.126039,0.369 0.376721,0.1188 0.754896,0.2336 1.134199,0.34406 0.379302,0.11046 0.759805,0.21692 1.141451,0.31914 0.468045,0.11822 0.937353,0.23002 1.408454,0.3359 0.471103,0.10591 0.943699,0.20566 1.417523,0.29874 0.473822,0.0932 0.949022,0.17949 1.425226,0.2593 0.476206,0.0798 0.953324,0.15286 1.431575,0.21895 0.478254,0.0661 0.957508,0.12535 1.437469,0.17725 0.47996,0.052 0.96067,0.0965 1.442,0.13372 0.481329,0.0372 0.963263,0.0672 1.445627,0.0894 0.482365,0.0222 0.965285,0.0365 1.448348,0.043 0.442497,0.01 0.885205,0.0121 1.327764,0.009 0.442559,-0.003 0.885015,-0.0134 1.327311,-0.0295 0.442299,-0.0161 0.884243,-0.0387 1.325952,-0.0671 0.441707,-0.0284 0.883344,-0.0628 1.324138,-0.10334 0.440795,-0.0405 0.880956,-0.0868 1.320513,-0.13915 0.439555,-0.0523 0.878439,-0.11095 1.316432,-0.17499 0.437992,-0.0641 0.87489,-0.13395 1.310992,-0.20944 0.436103,-0.0755 0.871211,-0.15628 1.3051,-0.24297 0.45786,-0.0929 0.914532,-0.19235 1.36947,-0.29828 0.454936,-0.10591 0.908275,-0.21841 1.359949,-0.33727 0.451675,-0.11885 0.901448,-0.24413 1.349524,-0.3758 0.448074,-0.13166 0.894505,-0.26997 1.338644,-0.41432 0.444139,-0.14437 0.886086,-0.29504 1.325952,-0.45196 0.439865,-0.15694 0.877552,-0.3202 1.312805,-0.48959 0.435256,-0.16939 0.867994,-0.34457 1.2983,-0.5263 0.430308,-0.18172 0.858317,-0.36998 1.28334,-0.56392 0.393295,-0.18019 0.784225,-0.36536 1.172729,-0.55577 0.388507,-0.19041 0.774357,-0.38605 1.157773,-0.5866 0.383415,-0.20054 0.76433,-0.40594 1.142357,-0.6165 0.378029,-0.21056 0.753247,-0.42597 1.125587,-0.64643 0.372336,-0.22047 0.742011,-0.4461 1.108359,-0.67636 0.366348,-0.23024 0.729261,-0.46541 1.089321,-0.70536 0.360058,-0.23993 0.716814,-0.48441 1.070281,-0.73391 0.353466,-0.2495 0.703756,-0.50398 1.050335,-0.76293 0.37869,-0.28181 0.753049,-0.56917 1.122866,-0.86221 0.369815,-0.29305 0.735274,-0.59189 1.09612,-0.89576 0.360843,-0.30387 0.71714,-0.61275 1.068919,-0.92703 0.351786,-0.31427 0.699098,-0.63361 1.041718,-0.95786 0.342631,-0.32426 0.680251,-0.6535 1.013621,-0.98733 0.33337,-0.33382 0.66239,-0.67246 0.98642,-1.01543 0.32402,-0.342961 0.64328,-0.690486 0.95786,-1.04217 0.31457,-0.351689 0.62424,-0.707566 0.92929,-1.067562 0.24854,-0.297743 0.49384,-0.598258 0.73529,-0.901645 0.24143,-0.30339 0.47923,-0.609555 0.71351,-0.918422 0.23429,-0.308864 0.46471,-0.620564 0.69176,-0.934738 0.22707,-0.314175 0.4507,-0.630834 0.67046,-0.950152 0.21977,-0.319316 0.43584,-0.641274 0.64825,-0.965564 0.2124,-0.324292 0.42107,-0.650977 0.62602,-0.980072 0.20497,-0.329095 0.40636,-0.66039 0.60382,-0.994123 0.19746,-0.333733 0.39082,-0.669974 0.58071,-1.008176 0.23794,-0.432568 0.47019,-0.868191 0.69583,-1.307368 0.22564,-0.439173 0.44482,-0.881833 0.65776,-1.327311 0.21296,-0.445478 0.41936,-0.893968 0.61924,-1.345442 0.19987,-0.451477 0.39336,-0.905959 0.57979,-1.363125 0.18642,-0.457167 0.36596,-0.91689 0.53854,-1.379443 0.17259,-0.462552 0.33803,-0.927676 0.49638,-1.39531 0.15836,-0.467632 0.30956,-0.937859 0.45332,-1.410268 0.14375,-0.472406 0.28012,-0.946991 0.40889,-1.423867 0.11483,-0.419833 0.2241,-0.841437 0.32729,-1.264301 0.10322,-0.422865 0.20031,-0.847356 0.29193,-1.272915 0.0916,-0.425556 0.1774,-0.852255 0.2575,-1.280166 0.0801,-0.427909 0.15442,-0.857043 0.22303,-1.286965 0.0686,-0.429923 0.13186,-0.860358 0.18903,-1.291953 0.0572,-0.431596 0.10836,-0.864012 0.15413,-1.29694 0.0458,-0.432928 0.0861,-0.866646 0.12058,-1.300565 0.0344,-0.433921 0.063,-0.868261 0.0861,-1.302835 0.0235,-0.421947 0.041,-0.844204 0.053,-1.266567 0.012,-0.42236 0.0187,-0.84454 0.0195,-1.267018 8e-4,-0.422482 -0.004,-0.84517 -0.0145,-1.267475 -0.0108,-0.422305 -0.0266,-0.844275 -0.0481,-1.266115 -0.0215,-0.421835 -0.0485,-0.843677 -0.0811,-1.264753 -0.0326,-0.421076 -0.0707,-0.841558 -0.11424,-1.261579 -0.0435,-0.420024 -0.0924,-0.839281 -0.14687,-1.257954 -0.0545,-0.418675 -0.11464,-0.836841 -0.17996,-1.253876 -0.0653,-0.417032 -0.13608,-0.832881 -0.21216,-1.247981 -0.076,-0.415097 -0.15756,-0.829216 -0.24434,-1.242086 -0.0868,-0.412873 -0.17868,-0.824488 -0.27606,-1.234837 -0.0974,-0.410349 -0.20032,-0.819592 -0.30826,-1.227129 -0.10793,-0.407535 -0.22113,-0.813634 -0.33954,-1.21806 -0.1184,-0.40443 -0.24201,-0.807064 -0.37081,-1.20809 -0.12881,-0.401026 -0.2625,-0.80033 -0.40163,-1.197663 -0.13915,-0.397332 -0.28354,-0.792985 -0.43293,-1.18633 -0.22828,-0.607073 -0.46925,-1.2095 -0.72258,-1.806921 -0.25334,-0.597422 -0.51922,-1.189638 -0.79693,-1.776549 -0.27773,-0.586911 -0.56712,-1.168366 -0.86856,-1.743909 -0.30143,-0.575543 -0.61479,-1.145238 -0.93927,-1.708552 -0.32449,-0.563314 -0.66041,-1.120247 -1.00727,-1.670471 -0.34687,-0.550226 -0.70444,-1.093851 -1.073,-1.630127 -0.36857,-0.536278 -0.74822,-1.065139 -1.13783,-1.58661 -0.38961,-0.521469 -0.78949,-1.035473 -1.19947,-1.541275 -0.40999,-0.505805 -0.83008,-1.003496 -1.25977,-1.492773 -0.42969,-0.489276 -0.86906,-0.97011 -1.31779,-1.442003 -0.44873,-0.47189 -0.90645,-0.934861 -1.37355,-1.388509 -0.467099,-0.453645 -0.943156,-0.897757 -1.427948,-1.332296 -0.484798,-0.43472 -0.978252,-0.859876 -1.480079,-1.274453 -0.501828,-0.414577 -1.012206,-0.81887 -1.530397,-1.212623 -0.518192,-0.393751 -1.044563,-0.776634 -1.578451,-1.148703 -0.533886,-0.37207 -1.07532,-0.732995 -1.624233,-1.082521 -0.434315,-0.279321 -0.873167,-0.551476 -1.315978,-0.816424 -0.442813,-0.264948 -0.889618,-0.522918 -1.340459,-0.773358 -0.45084,-0.250441 -0.905629,-0.493592 -1.36403,-0.729387 -0.458399,-0.235796 -0.920299,-0.4644 -1.385789,-0.685415 -0.46549,-0.221015 -0.934532,-0.43444 -1.406643,-0.640536 -0.47211,-0.206098 -0.947415,-0.404616 -1.425682,-0.595659 -0.478264,-0.191044 -0.95941,-0.374474 -1.44336,-0.550326 -0.483948,-0.175854 -0.970516,-0.344016 -1.459679,-0.504542 -0.489164,-0.160526 -0.980729,-0.313694 -1.474639,-0.458757 -0.493912,-0.145063 -0.990507,-0.282148 -1.488694,-0.411611 -0.498188,-0.129465 -0.99803,-0.251191 -1.500026,-0.364921 -0.501995,-0.113729 -1.00602,-0.219465 -1.511358,-0.317322 -0.505335,-0.09786 -1.012215,-0.187875 -1.520424,-0.269723 -0.508207,-0.08185 -1.01752,-0.155514 -1.528129,-0.221219 -0.510613,-0.0657 -1.022389,-0.12329 -1.53493,-0.172714 -0.512546,-0.04942 -1.025909,-0.09075 -1.539919,-0.123755 -0.517948,-0.04007 -1.035926,-0.06514 -1.55397,-0.07933 -0.518045,-0.01418 -1.036284,-0.01748 -1.554424,-0.01315 z"
       inkscape:export-filename="C:\01.Dev\projeto-html-css\assets\img\path31.png"
       inkscape:export-xdpi="96"
       inkscape:export-ydpi="96" />
    <path
       id="path261"
       style="fill:#71c837;stroke:none;stroke-width:1.1232"
       d="M 249.43555 12.455078 L 236.58984 12.84375 C 223.67913 13.814891 210.7979 15.433488 198.18359 18.404297 C 186.41319 20.997024 174.86852 24.620898 163.64062 28.990234 C 147.77616 35.253214 132.54583 43.134691 118.37305 52.630859 C 108.2205 59.350867 98.600199 66.901016 89.625 75.125 C 79.040263 84.766594 69.347204 95.384282 60.693359 106.78711 C 51.86532 118.38324 44.076505 130.77854 37.535156 143.80078 C 29.970117 158.71623 23.995902 174.43395 19.759766 190.61328 C 16.69058 202.03852 14.582167 213.72562 13.261719 225.47852 C 11.802456 238.56485 11.527428 251.75287 12.162109 264.90039 C 13.028212 278.69121 14.901894 292.42579 18.072266 305.88281 C 21.271244 319.58109 25.638603 333.01895 31.236328 345.92969 C 37.004804 359.44647 44.062676 372.41524 52.246094 384.62305 C 60.460833 396.92375 69.845552 408.43519 80.179688 419.01953 C 90.290544 429.33439 101.36106 438.69598 113.14453 447.05078 C 124.95787 455.36706 137.52203 462.6026 150.62891 468.68359 C 163.7474 474.76123 177.42324 479.60822 191.41992 483.23438 C 205.08344 486.72035 219.04867 489.05011 233.11719 490.07617 C 247.37072 491.16876 261.73035 490.94651 275.94727 489.43164 C 287.70858 488.24842 299.37618 486.0813 310.82422 483.15039 C 324.8938 479.49786 338.64073 474.59956 351.80859 468.44531 C 365.05527 462.2727 377.75607 454.92118 389.64648 446.42578 C 401.31838 438.12991 412.24663 428.7849 422.22852 418.52148 C 432.15133 408.36385 441.13037 397.29885 449.09766 385.54883 C 457.30188 373.34893 464.43343 360.427 470.28516 346.93945 C 475.96431 333.92506 480.42547 320.38994 483.7168 306.58203 C 486.73539 293.76724 488.65886 280.71769 489.59766 267.58789 C 490.74486 249.93534 490.08818 232.26756 487.33203 214.94531 C 480.35264 169.26731 459.60575 125.6357 428.50391 91.306641 C 398.62009 58.108023 358.95064 33.413121 315.79688 21.378906 C 294.22996 15.322948 271.85806 12.235422 249.43555 12.455078 z M 251.18945 40.917969 C 253.42187 40.899293 255.65471 40.913486 257.88672 40.974609 C 260.11872 41.035733 262.35044 41.143786 264.58203 41.316406 C 266.79665 41.458612 269.00849 41.63667 271.2168 41.849609 C 273.4251 42.062549 275.6301 42.310663 277.83008 42.59375 C 280.03005 42.876837 282.22444 43.194229 284.41406 43.546875 C 286.60369 43.899521 288.78759 44.287366 290.96484 44.708984 C 293.1421 45.130603 295.3137 45.586169 297.47656 46.076172 C 299.63942 46.566175 301.793 47.090638 303.93945 47.648438 C 306.0859 48.206237 308.22549 48.796866 310.35352 49.421875 C 312.48154 50.046884 314.59946 50.706806 316.70703 51.398438 C 318.8146 52.090069 320.91099 52.8146 322.99609 53.572266 C 325.0812 54.329932 327.15423 55.120246 329.21484 55.943359 C 331.27546 56.766472 333.32332 57.621793 335.35742 58.509766 C 337.39152 59.397738 339.4124 60.317286 341.41797 61.269531 C 343.42354 62.221776 345.41365 63.206727 347.38867 64.222656 C 349.3637 65.238586 351.32317 66.286208 353.26562 67.365234 C 355.20808 68.444261 357.13315 69.555729 359.04102 70.697266 C 360.94888 71.838802 362.83968 73.011385 364.71094 74.214844 C 367.07594 75.720785 369.40872 77.275838 371.70898 78.878906 C 374.00925 80.481974 376.27713 82.131634 378.50977 83.828125 C 380.74241 85.524616 382.94138 87.266523 385.10352 89.052734 C 387.26565 90.838946 389.39171 92.67074 391.48047 94.542969 C 393.56922 96.415197 395.62032 98.328661 397.63281 100.2832 C 399.64531 102.23775 401.61743 104.23247 403.55078 106.26562 C 405.48413 108.29878 407.37718 110.37046 409.22852 112.47852 C 411.07985 114.58658 412.88982 116.73089 414.65625 118.91016 C 416.42268 121.08942 418.14557 123.30402 419.82422 125.55078 C 421.50287 127.79755 423.13857 130.07616 424.72656 132.38672 C 426.31456 134.69728 427.85515 137.0395 429.34961 139.41016 C 430.84407 141.78081 432.29141 144.18037 433.68945 146.60742 C 435.08749 149.03447 436.43759 151.48901 437.73633 153.96875 C 439.03507 156.44849 440.28195 158.9537 441.47852 161.48242 C 442.67508 164.01114 443.8206 166.56271 444.91211 169.13672 C 446.00362 171.71072 447.04182 174.30629 448.02539 176.92188 C 448.66901 178.61661 449.29117 180.32129 449.89062 182.0332 C 450.49008 183.74512 451.06613 185.46553 451.62109 187.19336 C 452.17606 188.92119 452.70859 190.65595 453.21875 192.39844 C 453.72891 194.14092 454.21659 195.89061 454.68164 197.64648 C 455.14669 199.40236 455.59015 201.16559 456.00977 202.93359 C 456.42938 204.70159 456.82535 206.47504 457.19922 208.25391 C 457.57309 210.03277 457.92414 211.81701 458.25195 213.60547 C 458.57976 215.39393 458.88458 217.18563 459.16602 218.98242 C 459.44745 220.77922 459.70666 222.5809 459.94141 224.38477 C 460.17615 226.18863 460.38648 227.99501 460.57422 229.80469 C 460.76195 231.61436 460.92599 233.42602 461.06641 235.24023 C 461.20682 237.05445 461.32324 238.87196 461.41602 240.68945 C 461.50879 242.50695 461.57822 244.32502 461.62305 246.14453 C 461.66787 247.96404 461.68899 249.7852 461.68555 251.60547 C 461.6821 253.42573 461.65359 255.2447 461.60156 257.06445 C 461.54954 258.88421 461.47397 260.70351 461.37305 262.52148 C 461.2734 264.39385 461.15028 266.26521 461.00195 268.13477 C 460.85362 270.00432 460.67964 271.873 460.48242 273.73828 C 460.2852 275.60356 460.06467 277.46663 459.81836 279.32617 C 459.57205 281.18571 459.2995 283.04025 459.00391 284.89258 C 458.70831 286.74491 458.38805 288.59384 458.04297 290.4375 C 457.69789 292.28116 457.32836 294.1196 456.93359 295.95312 C 456.53882 297.78665 456.12044 299.61558 455.67578 301.4375 C 455.23113 303.25942 454.76037 305.07591 454.26562 306.88477 C 453.7108 308.9394 453.12329 310.98416 452.50391 313.01953 C 451.88452 315.05491 451.23308 317.0809 450.55078 319.0957 C 449.86848 321.11051 449.15568 323.11451 448.41211 325.10742 C 447.66854 327.10034 446.89499 329.08107 446.0918 331.05078 C 445.2886 333.02049 444.45492 334.97864 443.59375 336.92383 C 442.73258 338.86902 441.84328 340.80135 440.92578 342.7207 C 440.00828 344.64005 439.06398 346.54726 438.0918 348.43945 C 437.11961 350.33165 436.11897 352.20854 435.09375 354.07227 C 434.27561 355.52942 433.44256 356.97812 432.5918 358.41602 C 431.74103 359.85391 430.87333 361.2813 429.99023 362.69922 C 429.10714 364.11713 428.2081 365.52466 427.29297 366.92188 C 426.37784 368.31909 425.44686 369.70625 424.5 371.08203 C 423.55314 372.45782 422.58962 373.82215 421.61133 375.17578 C 420.63303 376.52941 419.64029 377.87237 418.63086 379.20312 C 417.62143 380.53388 416.5969 381.853 415.55664 383.16016 C 414.51638 384.46731 413.45947 385.76209 412.38867 387.04492 C 411.07437 388.59597 409.74014 390.12927 408.38477 391.64453 C 407.02939 393.15979 405.65387 394.65709 404.25781 396.13477 C 402.86176 397.61244 401.44414 399.07149 400.00781 400.50977 C 398.57149 401.94804 397.11682 403.3666 395.64062 404.76367 C 394.16443 406.16074 392.668 407.53657 391.15234 408.89062 C 389.63669 410.24468 388.10158 411.57553 386.54688 412.88477 C 384.99217 414.194 383.41758 415.48153 381.82422 416.74414 C 380.23086 418.00675 378.61793 419.24481 376.98633 420.45898 C 375.49309 421.57472 373.98386 422.6711 372.46094 423.74609 C 370.93802 424.82108 369.40093 425.87444 367.84961 426.9082 C 366.29829 427.94197 364.73467 428.95521 363.15625 429.94727 C 361.57783 430.93933 359.98508 431.91146 358.38086 432.86133 C 356.77663 433.8112 355.15999 434.73928 353.53125 435.64648 C 351.90251 436.55369 350.26133 437.43869 348.60938 438.30273 C 346.95742 439.16678 345.29498 440.00966 343.62109 440.83008 C 341.94721 441.65049 340.26288 442.44831 338.56836 443.22461 C 336.73714 444.06023 334.89305 444.87132 333.03906 445.6543 C 331.18508 446.43727 329.32062 447.19206 327.44531 447.92188 C 325.57001 448.65169 323.68423 449.3551 321.78906 450.03125 C 319.89389 450.7074 317.98975 451.35653 316.07617 451.97852 C 314.16259 452.6005 312.23913 453.19637 310.30859 453.76367 C 308.37805 454.33098 306.44019 454.87069 304.49414 455.38281 C 302.54809 455.89493 300.59487 456.37951 298.63477 456.83594 C 296.67466 457.29236 294.70708 457.72087 292.73438 458.12109 C 290.86496 458.4946 288.99029 458.84277 287.11133 459.16797 C 285.23237 459.49317 283.34999 459.79438 281.46289 460.07031 C 279.57579 460.34624 277.68485 460.59851 275.79102 460.82422 C 273.89718 461.04993 272.00074 461.2493 270.10156 461.42383 C 268.20239 461.59835 266.29959 461.74675 264.39648 461.86914 C 262.49337 461.99153 260.58924 462.08891 258.68359 462.1582 C 256.77795 462.22749 254.87162 462.26992 252.96484 462.28516 C 251.05807 462.30039 249.15065 462.28783 247.24414 462.24805 C 245.16286 462.21992 243.08218 462.15777 241.00391 462.0625 C 238.92563 461.96723 236.84921 461.83816 234.77539 461.67773 C 232.70157 461.51731 230.63042 461.32514 228.5625 461.10156 C 226.49458 460.87799 224.4297 460.62262 222.36914 460.33789 C 220.30858 460.05316 218.25291 459.73842 216.20117 459.39453 C 214.14943 459.05065 212.10202 458.67839 210.06055 458.27734 C 208.01907 457.8763 205.98288 457.44644 203.95312 456.99023 C 201.92337 456.53403 199.90135 456.05234 197.88477 455.54297 C 196.24044 455.10255 194.60103 454.6439 192.9668 454.16797 C 191.33257 453.69204 189.70319 453.19741 188.08008 452.68555 C 186.45697 452.17368 184.83948 451.64394 183.22852 451.0957 C 181.61755 450.54746 180.01186 449.98153 178.41406 449.39648 C 176.81626 448.81144 175.22619 448.20822 173.64258 447.58594 C 172.05897 446.96366 170.48246 446.32206 168.91406 445.66211 C 167.34566 445.00216 165.78459 444.32305 164.23242 443.625 C 162.68026 442.92695 161.13647 442.20923 159.60156 441.47266 C 157.79804 440.59698 156.00603 439.6972 154.22656 438.77344 C 152.44709 437.84968 150.68133 436.9035 148.92773 435.93164 C 147.17414 434.95978 145.43291 433.96332 143.70703 432.94336 C 141.98115 431.92339 140.27057 430.87863 138.57422 429.81055 C 136.87787 428.74246 135.19624 427.65137 133.53125 426.53516 C 131.86626 425.41895 130.21774 424.27763 128.58594 423.11328 C 126.95414 421.94893 125.33897 420.76133 123.74219 419.54883 C 122.1454 418.33633 120.56581 417.09855 119.00586 415.83789 C 117.52131 414.64745 116.05479 413.4382 114.60352 412.20703 C 113.15224 410.97587 111.71784 409.72383 110.30078 408.45312 C 108.88372 407.18242 107.48346 405.89305 106.10156 404.58398 C 104.71966 403.27492 103.35557 401.94585 102.00977 400.59961 C 100.66396 399.25337 99.336112 397.88809 98.027344 396.50586 C 96.718575 395.12363 95.428996 393.72368 94.158203 392.30664 C 92.887411 390.8896 91.636174 389.45652 90.404297 388.00586 C 89.17242 386.5552 87.9596 385.08857 86.767578 383.60547 C 85.509302 382.0483 84.274979 380.47267 83.064453 378.87891 C 81.853927 377.28514 80.666613 375.6735 79.503906 374.04492 C 78.341199 372.41634 77.202708 370.76905 76.087891 369.10742 C 74.973073 367.4458 73.883265 365.76906 72.816406 364.07617 C 71.749547 362.38328 70.70633 360.67551 69.6875 358.95312 C 68.66867 357.23074 67.673857 355.49424 66.703125 353.74414 C 65.732393 351.99404 64.785845 350.22916 63.863281 348.45312 C 62.940717 346.67709 62.042295 344.89004 61.167969 343.08984 C 60.353802 341.38334 59.560617 339.66626 58.789062 337.93945 C 58.017508 336.21265 57.266496 334.47465 56.539062 332.72852 C 55.811629 330.98238 55.107585 329.22738 54.425781 327.46289 C 53.743978 325.6984 53.085837 323.92446 52.451172 322.14258 C 51.816507 320.36069 51.205158 318.57175 50.619141 316.77344 C 50.033123 314.97513 49.471407 313.16728 48.935547 311.35352 C 48.399686 309.53975 47.890445 307.71888 47.40625 305.89062 C 46.922055 304.06237 46.462271 302.22849 46.03125 300.38672 C 45.539168 298.34825 45.081298 296.30228 44.654297 294.25 C 44.227296 292.19772 43.831688 290.13842 43.46875 288.07422 C 43.105812 286.01002 42.774503 283.93946 42.474609 281.86523 C 42.174715 279.79101 41.905837 277.71321 41.667969 275.63086 C 41.4301 273.54851 41.223737 271.46162 41.046875 269.37305 C 40.870013 267.28447 40.724296 265.19446 40.607422 263.10156 C 40.490548 261.00866 40.401655 258.91369 40.34375 256.81836 C 40.285845 254.72303 40.257767 252.62711 40.257812 250.53125 C 40.275843 248.82947 40.313294 247.12857 40.369141 245.42773 C 40.424987 243.7269 40.499513 242.02514 40.59375 240.32617 C 40.687987 238.62721 40.802345 236.93055 40.935547 235.23438 C 41.068749 233.5382 41.219837 231.84285 41.392578 230.15039 C 41.565319 228.45793 41.759802 226.7679 41.972656 225.08008 C 42.185511 223.39226 42.418333 221.70765 42.671875 220.02539 C 42.925417 218.34313 43.199337 216.66406 43.494141 214.98828 C 43.788945 213.3125 44.104766 211.63908 44.441406 209.9707 C 44.84144 208.00419 45.268005 206.04429 45.722656 204.08984 C 46.177308 202.1354 46.658825 200.1869 47.167969 198.24609 C 47.677113 196.30529 48.213832 194.3709 48.777344 192.44531 C 49.340855 190.51973 49.931074 188.60215 50.548828 186.69336 C 51.166582 184.78457 51.812504 182.88455 52.484375 180.99414 C 53.156246 179.10373 53.854215 177.22398 54.580078 175.35352 C 55.305941 173.48305 56.05816 171.62238 56.837891 169.77344 C 57.617621 167.9245 58.42434 166.08756 59.257812 164.26172 C 60.034955 162.55664 60.83595 160.86177 61.658203 159.17773 C 62.480456 157.4937 63.324647 155.81994 64.191406 154.1582 C 65.058165 152.49646 65.94676 150.84522 66.857422 149.20703 C 67.768083 147.56884 68.700337 145.94345 69.654297 144.33008 C 70.608257 142.7167 71.583424 141.1166 72.580078 139.5293 C 73.576733 137.94199 74.596021 136.36662 75.634766 134.80664 C 76.673511 133.24667 77.732268 131.70131 78.8125 130.16992 C 79.892732 128.63854 80.99412 127.12263 82.115234 125.62109 C 83.403047 123.89208 84.717061 122.18303 86.058594 120.49609 C 87.400126 118.80916 88.76873 117.14398 90.162109 115.5 C 91.555488 113.85602 92.974617 112.23298 94.417969 110.63281 C 95.86132 109.03265 97.328862 107.45587 98.820312 105.90039 C 100.31176 104.34491 101.82756 102.8107 103.36523 101.30078 C 104.90291 99.790864 106.46289 98.305285 108.04492 96.841797 C 109.62695 95.378309 111.23096 93.937673 112.85547 92.521484 C 114.47998 91.105296 116.12395 89.713723 117.78906 88.345703 C 119.13689 87.255451 120.49875 86.178617 121.87109 85.119141 C 123.24343 84.059665 124.6269 83.017563 126.02344 81.990234 C 127.41998 80.962905 128.82957 79.950842 130.25 78.957031 C 131.67043 77.96322 133.10286 76.986266 134.54688 76.027344 C 135.99089 75.068422 137.44482 74.127741 138.91211 73.205078 C 140.3794 72.282416 141.85936 71.379173 143.34961 70.494141 C 144.83986 69.609109 146.34061 68.742515 147.85352 67.896484 C 149.36642 67.050454 150.89053 66.223627 152.42578 65.417969 C 154.30492 64.418903 156.20017 63.450737 158.10938 62.511719 C 160.01858 61.5727 161.94171 60.662346 163.87891 59.783203 C 165.8161 58.90406 167.76734 58.055766 169.73047 57.236328 C 171.6936 56.41689 173.66925 55.627092 175.65625 54.867188 C 177.64325 54.107283 179.64159 53.376324 181.65039 52.675781 C 183.6592 51.975239 185.67849 51.305414 187.70703 50.664062 C 189.73558 50.022711 191.77409 49.410457 193.82031 48.828125 C 195.86653 48.245793 197.92059 47.693406 199.98242 47.169922 C 201.53332 46.786901 203.08795 46.422737 204.64648 46.076172 C 206.20502 45.729606 207.76655 45.400867 209.33203 45.089844 C 210.89751 44.77882 212.46733 44.485379 214.03906 44.208984 C 215.61079 43.932589 217.18443 43.672367 218.76172 43.429688 C 220.339 43.187008 221.91981 42.961831 223.50195 42.751953 C 225.0841 42.542075 226.6676 42.347912 228.25391 42.169922 C 229.84022 41.991932 231.42975 41.830609 233.01953 41.683594 C 234.60931 41.536578 236.20041 41.404064 237.79297 41.287109 C 240.02616 41.203931 242.25938 41.121463 244.49219 41.054688 C 246.725 40.987912 248.95704 40.936644 251.18945 40.917969 z "
       transform="scale(0.26458333)" />
    <g
       style="fill:none;stroke:#216778"
       id="g717"
       transform="matrix(3.0028325,0,0,3.0028325,30.710834,33.62022)">
      <path
         stroke-linecap="round"
         stroke-linejoin="round"
         stroke-width="2"
         d="M 9.75,17 9,20 8,21 h 8 L 15,20 14.25,17 M 3,13 H 21 M 5,17 h 14 a 2,2 0 0 0 2,-2 V 5 A 2,2 0 0 0 19,3 H 5 A 2,2 0 0 0 3,5 v 10 a 2,2 0 0 0 2,2 z"
         id="path708"
         style="stroke:#216778" />
    </g>
  </g>
</svg>
